<?xml version="1.0" encoding="utf-8"?>
<!-- Svg Vector Icons : http://www.onlinewebfonts.com/icon -->
<!DOCTYPE svg PUBLIC "-//W3C//DTD SVG 1.1//EN" "http://www.w3.org/Graphics/SVG/1.1/DTD/svg11.dtd">
<svg version="1.1" xmlns="http://www.w3.org/2000/svg" xmlns:xlink="http://www.w3.org/1999/xlink" x="0px" y="0px" viewBox="0 0 1000 1000" enable-background="new 0 0 1000 1000" xml:space="preserve">
<metadata> Svg Vector Icons : http://www.onlinewebfonts.com/icon </metadata>
<g><g transform="translate(0.000000,511.000000) scale(0.100000,-0.100000)"><path d="M4936.9,4747.7c-88.2-19.2-151.4-67.1-197.4-151.4c-42.2-74.7-42.2-74.7-42.2-1282c0-1130.6-1.9-1215-36.4-1324.2c-19.2-65.1-63.2-157.1-95.8-207c-76.7-120.7-528.9-571.1-546.2-544.2c-21.1,32.6-15.3,820.2,7.7,1017.6c9.6,99.7,32.6,277.9,49.8,392.9c17.2,116.9,26.8,256.8,21.1,314.3c-19.2,182.1-176.3,444.6-306.6,513.6c-93.9,47.9-264.5,40.2-435-23c-601.7-220.4-1186.2-688-1590.6-1268.6C1301.6,1516.7,899.2,744.4,665.4,71.8C523.5-332.6,452.6-633.4,330-1346.3C121.1-2553.6,86.6-2866,103.9-3444.7c26.8-868.1,159.1-1142.1,527-1082.7c128.4,21.1,320,113.1,684.1,329.6c350.7,207,626.7,323.8,1274.4,536.6c674.6,222.3,850.9,308.5,1065.5,521.3c176.3,178.2,291.3,377.5,387.1,684.1c130.3,408.2,147.6,802.9,53.7,1291.6c-69,371.8-76.7,486.7-42.2,747.4c17.2,124.6,30.7,362.2,30.7,527v298.9l379.4,375.6c555.7,553.8,525.1,553.8,1082.7,0l377.5-375.6V100.5c0-168.6,13.4-406.3,30.7-527c32.6-251.1,26.8-371.8-42.2-737.8c-93.9-488.7-76.7-883.4,53.7-1291.6c95.8-304.7,210.8-505.9,387.1-684.1c136.1-136.1,182.1-168.7,375.6-262.5c120.7-59.4,358.4-151.4,527-205.1c787.6-253,1073.2-371.8,1498.6-624.7c153.3-90.1,335.4-191.6,400.5-222.3c205-95.8,389-103.5,504-21.1c80.5,57.5,168.6,260.6,205,475.3c47.9,272.1,47.9,1142.1,1.9,1494.7C9810.2-2087.9,9586-796.3,9526.6-551c-207,864.3-674.6,1858.9-1284,2734.6c-270.2,389-645.8,751.2-1017.6,983.1c-469.5,291.3-829.8,402.4-1006.1,310.5c-134.2-70.9-289.4-327.7-306.6-513.6c-7.7-61.3,5.8-218.5,32.6-390.9c32.6-220.4,44.1-404.4,51.7-789.5c3.8-277.9,1.9-519.3-3.8-536.6c-9.6-24.9-65.1,21.1-262.5,216.5c-268.3,266.4-327.7,346.9-383.3,527c-34.5,109.2-36.4,195.5-36.4,1316.5c0,1172.8,0,1201.6-40.3,1280.1C5210.9,4713.2,5073,4778.3,4936.9,4747.7z"/></g></g>
</svg>